<svg width="252" height="50" viewBox="0 0 252 50" fill="none" xmlns="http://www.w3.org/2000/svg">
<path d="M58.3339 39.8139C55.4293 39.8139 52.9371 39.2196 50.8577 38.0312C48.7783 36.8261 47.1773 35.159 46.0551 33.0296C44.9494 30.8839 44.3965 28.3913 44.3965 25.5522C44.3965 22.6966 44.9494 20.2042 46.0551 18.0747C47.1773 15.9288 48.7783 14.2618 50.8577 13.0734C52.9371 11.8683 55.4293 11.2658 58.3339 11.2658C61.2386 11.2658 63.7308 11.8683 65.8102 13.0734C67.9062 14.2618 69.507 15.9288 70.6128 18.0747C71.735 20.2042 72.2963 22.6966 72.2963 25.5522C72.2963 28.3913 71.735 30.8839 70.6128 33.0296C69.507 35.159 67.9062 36.8261 65.8102 38.0312C63.7308 39.2196 61.2386 39.8139 58.3339 39.8139ZM58.3835 33.104C59.4562 33.104 60.3556 32.7904 61.0819 32.163C61.8081 31.5359 62.361 30.6527 62.7405 29.5137C63.1367 28.3583 63.3346 27.0213 63.3346 25.5026C63.3346 23.9677 63.1367 22.6389 62.7405 21.5163C62.361 20.3939 61.8081 19.5274 61.0819 18.9167C60.3556 18.2893 59.4562 17.9756 58.3835 17.9756C57.3108 17.9756 56.3948 18.2893 55.6355 18.9167C54.8764 19.5274 54.3069 20.3939 53.9274 21.5163C53.5479 22.6389 53.3581 23.9677 53.3581 25.5026C53.3581 27.0213 53.5479 28.3583 53.9274 29.5137C54.3069 30.6527 54.8764 31.5359 55.6355 32.163C56.3948 32.7904 57.3108 33.104 58.3835 33.104Z" fill="#E5E5F3"/>
<path d="M75.4402 39.2938V11.6125H84.2531V39.2938H75.4402ZM79.8218 8.44329C78.5841 8.44329 77.5196 8.03053 76.6284 7.20521C75.7372 6.37989 75.2917 5.38122 75.2917 4.2092C75.2917 3.03738 75.7372 2.04691 76.6284 1.2382C77.5196 0.412882 78.5841 0.00012207 79.8218 0.00012207C81.0761 0.00012207 82.1406 0.412882 83.0154 1.2382C83.9066 2.04691 84.3522 3.03738 84.3522 4.2092C84.3522 5.38122 83.9066 6.37989 83.0154 7.20521C82.1406 8.03053 81.0761 8.44329 79.8218 8.44329Z" fill="#E5E5F3"/>
<path d="M97.2252 23.5219V39.2939H88.4121V11.6125H97.1261V16.7129H97.3489C97.9761 15.0293 98.9746 13.7005 100.344 12.7266C101.731 11.7528 103.447 11.2658 105.494 11.2658C107.441 11.2658 109.133 11.7034 110.568 12.5781C112.004 13.4365 113.118 14.6497 113.91 16.2177C114.703 17.7695 115.099 19.585 115.099 21.6649V39.2939H106.286V23.3982C106.286 21.863 105.898 20.6664 105.122 19.808C104.346 18.9331 103.257 18.4957 101.854 18.4957C100.93 18.4957 100.122 18.6939 99.4284 19.09C98.7353 19.4862 98.1907 20.0639 97.7945 20.8231C97.415 21.566 97.2252 22.4656 97.2252 23.5219Z" fill="#E5E5F3"/>
<path d="M133.591 39.7891C130.505 39.7891 127.815 39.3269 125.521 38.4025C123.227 37.4616 121.436 36.0504 120.149 34.1686C118.878 32.2703 118.226 29.8852 118.193 27.0131H126.709C126.792 28.1849 127.114 29.1754 127.675 29.9843C128.252 30.7766 129.028 31.3789 130.002 31.7917C130.992 32.2042 132.147 32.4106 133.467 32.4106C134.672 32.4106 135.696 32.2457 136.537 31.9154C137.396 31.5853 138.056 31.1315 138.517 30.5536C138.979 29.9759 139.211 29.3075 139.211 28.548C139.211 27.8548 138.995 27.2689 138.567 26.7901C138.139 26.2951 137.486 25.8659 136.611 25.5026C135.752 25.1231 134.647 24.7846 133.294 24.4875L129.408 23.5961C126.239 22.8699 123.739 21.6897 121.907 20.0556C120.075 18.4048 119.159 16.1682 119.159 13.3456C119.159 11.0678 119.778 9.07043 121.015 7.35373C122.253 5.63703 123.953 4.30007 126.115 3.34263C128.294 2.38539 130.786 1.90657 133.591 1.90657C136.447 1.90657 138.929 2.3936 141.043 3.36745C143.155 4.32489 144.788 5.67827 145.943 7.428C147.1 9.16131 147.693 11.1751 147.727 13.4695H139.161C139.061 12.1489 138.535 11.1254 137.576 10.3992C136.635 9.65635 135.3 9.28502 133.567 9.28502C132.411 9.28502 131.446 9.43355 130.67 9.73061C129.911 10.0279 129.333 10.4404 128.937 10.9687C128.558 11.497 128.368 12.0911 128.368 12.7514C128.368 13.4777 128.582 14.0966 129.011 14.6085C129.441 15.1201 130.059 15.5493 130.868 15.8958C131.693 16.2425 132.659 16.5396 133.765 16.7872L136.909 17.5052C138.723 17.9013 140.332 18.4296 141.736 19.09C143.139 19.7502 144.318 20.5343 145.277 21.442C146.25 22.35 146.984 23.3981 147.479 24.5866C147.975 25.775 148.221 27.1038 148.221 28.5729C148.221 30.9169 147.637 32.9307 146.464 34.6143C145.309 36.2814 143.641 37.5607 141.463 38.4521C139.286 39.3435 136.661 39.7891 133.591 39.7891Z" fill="#E5E5F3"/>
<path d="M156.515 39.2938L149.286 11.6125H158.148L161.887 29.3652H162.085L166.121 11.6125H174.71L178.844 29.2415H179.068L182.681 11.6125H191.545L184.315 39.2938H174.885L170.577 23.1505H170.255L165.947 39.2938H156.515Z" fill="#E5E5F3"/>
<path d="M203.081 39.69C201.051 39.69 199.202 39.1619 197.534 38.1054C195.869 37.0491 194.532 35.4643 193.525 33.3515C192.534 31.2388 192.04 28.6141 192.04 25.478C192.04 22.2262 192.55 19.552 193.575 17.4558C194.614 15.3595 195.975 13.8078 197.659 12.8009C199.342 11.7776 201.15 11.2658 203.081 11.2658C204.533 11.2658 205.77 11.5134 206.795 12.0086C207.817 12.5039 208.666 13.1476 209.343 13.9399C210.021 14.7158 210.532 15.5245 210.878 16.3664H211.076V11.6125H219.84V39.2939H211.15V34.7877H210.878C210.516 35.6459 209.987 36.4466 209.295 37.1894C208.618 37.9321 207.759 38.5346 206.72 38.9968C205.696 39.459 204.482 39.69 203.081 39.69ZM206.15 32.8316C207.223 32.8316 208.14 32.5261 208.898 31.9154C209.657 31.3047 210.236 30.4547 210.632 29.3652C211.044 28.2592 211.25 26.9635 211.25 25.478C211.25 23.9593 211.044 22.6553 210.632 21.566C210.236 20.46 209.657 19.6099 208.898 19.0157C208.14 18.4214 207.223 18.1244 206.15 18.1244C205.061 18.1244 204.136 18.4296 203.378 19.0404C202.619 19.6511 202.04 20.5094 201.644 21.6154C201.266 22.7048 201.076 23.9923 201.076 25.478C201.076 26.9471 201.274 28.2346 201.67 29.3406C202.066 30.4463 202.635 31.3047 203.378 31.9154C204.136 32.5261 205.061 32.8316 206.15 32.8316Z" fill="#E5E5F3"/>
<path d="M224.024 49.6435V11.6125H232.737V16.3664H233.035C233.382 15.5245 233.884 14.7158 234.545 13.9399C235.221 13.1476 236.072 12.5039 237.095 12.0086C238.134 11.5134 239.389 11.2658 240.858 11.2658C242.788 11.2658 244.588 11.7776 246.255 12.8009C247.92 13.8078 249.266 15.3595 250.291 17.4558C251.329 19.552 251.85 22.2262 251.85 25.478C251.85 28.6141 251.353 31.2388 250.365 33.3515C249.374 35.4643 248.037 37.0491 246.353 38.1054C244.686 39.1619 242.83 39.69 240.784 39.69C239.397 39.69 238.192 39.459 237.169 38.9968C236.146 38.5346 235.287 37.9321 234.595 37.1894C233.918 36.4466 233.398 35.6459 233.035 34.7877H232.837V49.6435H224.024ZM237.738 32.8316C238.829 32.8316 239.743 32.5261 240.486 31.9154C241.245 31.3047 241.815 30.4463 242.195 29.3406C242.59 28.2346 242.788 26.9471 242.788 25.478C242.788 23.9923 242.59 22.7048 242.195 21.6154C241.815 20.5094 241.255 19.6511 240.512 19.0404C239.769 18.4296 238.845 18.1244 237.738 18.1244C236.667 18.1244 235.75 18.4214 234.991 19.0157C234.231 19.6099 233.646 20.46 233.234 21.566C232.837 22.6553 232.639 23.9593 232.639 25.478C232.639 26.9635 232.837 28.2592 233.234 29.3652C233.646 30.4547 234.231 31.3047 234.991 31.9154C235.75 32.5261 236.667 32.8316 237.738 32.8316Z" fill="#E5E5F3"/>
<path d="M20.4452 40.7641C15.2286 40.7641 10.4705 38.7978 6.86931 35.5643C6.40911 35.1512 6.41111 34.44 6.84809 34.0024L12.458 28.3829C12.8958 27.9443 13.6032 27.9499 14.0866 28.338C15.8283 29.7364 18.0393 30.5732 20.4452 30.5732C22.8525 30.5732 25.0646 29.7357 26.8069 28.3356C27.2889 27.9483 27.2853 27.2339 26.8486 26.7963L22.355 22.2952C21.6496 21.5887 22.1501 20.3821 23.1483 20.3821H39.6716C40.2907 20.3821 40.7959 20.8849 40.7623 21.5031C40.1816 32.2384 31.3073 40.7641 20.4452 40.7641Z" fill="#4F60FB"/>
<path d="M20.3187 0C25.5353 0 30.2934 1.96652 33.8946 5.19974C34.3548 5.6129 34.3528 6.32412 33.9158 6.7617L28.3061 12.3812C27.8681 12.8198 27.1607 12.8144 26.6775 12.4263C24.9355 11.0276 22.7246 10.1911 20.3187 10.1911C17.9114 10.1911 15.6993 11.0286 13.9572 12.4287C13.4751 12.816 13.4785 13.5302 13.9155 13.9678L18.409 18.4689C19.1143 19.1755 18.6138 20.382 17.6156 20.382H1.09232C0.473182 20.382 -0.0318598 19.8794 0.00156944 19.261C0.582477 8.52585 9.45663 0 20.3187 0Z" fill="#4F60FB"/>
</svg>
