<svg width="54" height="54" viewBox="0 0 54 54" fill="none" xmlns="http://www.w3.org/2000/svg">
<path fill-rule="evenodd" clip-rule="evenodd" d="M54 31C54 43.7025 43.7025 54 31 54C18.2975 54 8 43.7025 8 31C8 28.1824 8.50666 25.4831 9.43385 22.9882C9.62167 22.9963 9.81053 23.0004 10.0003 23.0004C17.18 23.0004 23.0003 17.1801 23.0003 10.0004C23.0003 9.81055 22.9963 9.62169 22.9882 9.43386C25.483 8.50666 28.1824 8 31 8C43.7025 8 54 18.2975 54 31Z" fill="#30AE9B"/>
<path fill-rule="evenodd" clip-rule="evenodd" d="M14.6689 31.4755L20.6335 18.8739C20.653 18.8314 20.6844 18.7956 20.7237 18.7706C20.763 18.7457 20.8087 18.7327 20.8552 18.7333H41.1467C41.193 18.7332 41.2383 18.7465 41.2773 18.7716C41.3162 18.7966 41.3472 18.8325 41.3664 18.8748L47.331 31.4765C47.3537 31.5234 47.3609 31.5763 47.3515 31.6276C47.3422 31.6789 47.3167 31.7258 47.279 31.7615L31.1701 47.2867C31.1243 47.3309 31.0634 47.3555 31 47.3555C30.9366 47.3555 30.8756 47.3309 30.8299 47.2867L14.721 31.7605C14.6832 31.7248 14.6578 31.6779 14.6484 31.6266C14.639 31.5753 14.6462 31.5224 14.6689 31.4755ZM33.0695 28.9649C37.6979 29.1802 41.1755 30.102 41.1755 31.208C41.1755 32.314 37.6945 33.2368 33.0686 33.4511V41.49H28.9457V33.454C24.3092 33.2388 20.8224 32.3159 20.8224 31.2089C20.8224 30.1019 24.3092 29.1781 28.9457 28.9639V26.4571H23.2413V22.633H38.7749V26.4571H33.0695V28.9649ZM33.0695 32.7696C32.9539 32.7783 32.3564 32.8142 31.0235 32.8142C29.9634 32.8142 29.2107 32.7822 28.9467 32.7696C24.8498 32.5883 21.7919 31.871 21.7919 31.0122C21.7919 30.1533 24.8498 29.4369 28.9467 29.2528V32.0552C29.2146 32.0746 29.9817 32.1201 31.0418 32.1201C32.314 32.1201 32.951 32.0668 33.0657 32.0562V29.2547C37.1539 29.4379 40.2051 30.1552 40.2051 31.0122C40.2051 31.8691 37.1548 32.5864 33.0657 32.7686L33.0695 32.7696Z" fill="#E5E5F3"/>
<circle cx="10" cy="10" r="10" fill="#FB4F74"/>
<path fill-rule="evenodd" clip-rule="evenodd" d="M12.7263 13.5054C12.9414 13.7205 13.2902 13.7205 13.5053 13.5054C13.7204 13.2903 13.7204 12.9416 13.5053 12.7264L10.7789 10.0001L13.5053 7.2737C13.7204 7.0586 13.7204 6.70984 13.5053 6.49474C13.2902 6.27963 12.9414 6.27963 12.7263 6.49474L9.99996 9.2211L7.27356 6.4947C7.05845 6.2796 6.70969 6.2796 6.49459 6.4947C6.27948 6.70981 6.27948 7.05857 6.49459 7.27367L9.22099 10.0001L6.49458 12.7265C6.27948 12.9416 6.27948 13.2903 6.49458 13.5054C6.70969 13.7206 7.05844 13.7206 7.27355 13.5054L9.99996 10.779L12.7263 13.5054Z" fill="white" stroke="white" stroke-width="0.734418" stroke-linecap="round" stroke-linejoin="round"/>
</svg>
