<svg width="22" height="22" viewBox="0 0 22 22" fill="none" xmlns="http://www.w3.org/2000/svg">
<rect width="22" height="22" rx="11" fill="#FB4F74"/>
<path fill-rule="evenodd" clip-rule="evenodd" d="M14.0672 14.9437C14.3092 15.1857 14.7016 15.1857 14.9436 14.9437C15.1855 14.7017 15.1855 14.3093 14.9436 14.0673L11.8764 11.0002L14.9435 7.93299C15.1855 7.691 15.1855 7.29865 14.9435 7.05665C14.7016 6.81466 14.3092 6.81466 14.0672 7.05665L11 10.1238L7.93284 7.05662C7.69085 6.81462 7.2985 6.81462 7.0565 7.05662C6.81451 7.29861 6.81451 7.69096 7.0565 7.93296L10.1237 11.0002L7.0565 14.0674C6.8145 14.3094 6.8145 14.7017 7.0565 14.9437C7.29849 15.1857 7.69084 15.1857 7.93283 14.9437L11 11.8765L14.0672 14.9437Z" fill="#E5E5F3" stroke="#E5E5F3" stroke-width="0.82622" stroke-linecap="round" stroke-linejoin="round"/>
</svg>
