<svg width="24" height="24" viewBox="0 0 24 24" fill="none" xmlns="http://www.w3.org/2000/svg">
<path d="M12 5C16.6944 5 20.5 8.80558 20.5 13.5C20.5 18.1944 16.6944 22 12 22C7.30558 22 3.5 18.1944 3.5 13.5C3.5 8.80558 7.30558 5 12 5ZM12 8.25C11.5858 8.25 11.25 8.58579 11.25 9V12.7012C10.8018 12.9606 10.5 13.4449 10.5 14C10.5 14.8284 11.1716 15.5 12 15.5C12.8284 15.5 13.5 14.8284 13.5 14C13.5 13.4449 13.1982 12.9606 12.75 12.7012V9C12.75 8.58579 12.4142 8.25 12 8.25ZM12 2.25C13.1097 2.25 14.1847 2.40406 15.2041 2.69238C15.6027 2.80511 15.8344 3.21959 15.7217 3.61816C15.616 3.99169 15.2453 4.21904 14.8711 4.15332L14.7959 4.13574L14.4609 4.04688C13.6733 3.85283 12.8491 3.75 12 3.75C11.0297 3.75 10.092 3.88461 9.2041 4.13574C8.80553 4.24847 8.39105 4.01674 8.27832 3.61816C8.1656 3.21959 8.39733 2.80511 8.7959 2.69238C9.81532 2.40406 10.8903 2.25 12 2.25Z" fill="#FB944F"/>
</svg>
