<svg width="18" height="18" viewBox="0 0 18 18" fill="none" xmlns="http://www.w3.org/2000/svg">
<path d="M5.66675 5.66669V4.00002C5.66675 2.15907 7.15913 0.666687 9.00008 0.666687L14.0001 0.666687C15.841 0.666687 17.3334 2.15907 17.3334 4.00002V9.00002C17.3334 10.841 15.841 12.3334 14.0001 12.3334H12.3334M5.66675 5.66669H4.00008C2.15913 5.66669 0.666748 7.15907 0.666748 9.00002V14C0.666748 15.841 2.15913 17.3334 4.00008 17.3334H9.00008C10.841 17.3334 12.3334 15.841 12.3334 14V12.3334M5.66675 5.66669H9.00008C10.841 5.66669 12.3334 7.15907 12.3334 9.00002V12.3334" stroke="#71717B" stroke-width="1.25" stroke-linejoin="round"/>
</svg>
