<svg width="48" height="48" viewBox="0 0 48 48" fill="none" xmlns="http://www.w3.org/2000/svg">
<path fill-rule="evenodd" clip-rule="evenodd" d="M32.1791 34.516C32.8244 35.1613 33.8707 35.1613 34.516 34.516C35.1613 33.8707 35.1613 32.8244 34.516 32.1791L26.3369 24L34.516 15.8209C35.1613 15.1755 35.1613 14.1293 34.516 13.484C33.8707 12.8386 32.8244 12.8386 32.1791 13.484L24 21.6631L15.8208 13.4839C15.1755 12.8385 14.1292 12.8385 13.4839 13.4839C12.8386 14.1292 12.8386 15.1755 13.4839 15.8208L21.6631 24L13.4839 32.1792C12.8385 32.8245 12.8385 33.8708 13.4839 34.5161C14.1292 35.1614 15.1755 35.1614 15.8208 34.5161L24 26.3369L32.1791 34.516Z" fill="white" stroke="white" stroke-width="2.20325" stroke-linecap="round" stroke-linejoin="round"/>
</svg>
