<svg width="22" height="22" viewBox="0 0 22 22" fill="none" xmlns="http://www.w3.org/2000/svg">
<circle cx="11.0001" cy="15.5833" r="0.916667" transform="rotate(-180 11.0001 15.5833)" fill="#FB4F74"/>
<path d="M11 12.8333L11 6.41665M2.75 8.37094V13.6291C2.75 15.0255 3.47628 16.3158 4.65526 17.014L9.09474 19.643C10.2737 20.3412 11.7263 20.3412 12.9053 19.643L17.3447 17.014C18.5237 16.3158 19.25 15.0255 19.25 13.6291V8.37094C19.25 6.97456 18.5237 5.68425 17.3447 4.98606L12.9053 2.35699C11.7263 1.6588 10.2737 1.6588 9.09474 2.35699L4.65526 4.98606C3.47628 5.68425 2.75 6.97456 2.75 8.37094Z" stroke="#FB4F74" stroke-width="1.375" stroke-linecap="round"/>
</svg>
