<svg width="14" height="14" viewBox="0 0 14 14" fill="none" xmlns="http://www.w3.org/2000/svg">
<path fill-rule="evenodd" clip-rule="evenodd" d="M11.0896 12.2581C11.4123 12.5807 11.9354 12.5807 12.2581 12.2581C12.5807 11.9354 12.5807 11.4123 12.2581 11.0896L8.16851 7.00004L12.2581 2.91049C12.5807 2.58783 12.5807 2.0647 12.2581 1.74204C11.9354 1.41938 11.4123 1.41938 11.0896 1.74204L7.00006 5.83159L2.91046 1.74199C2.5878 1.41933 2.06466 1.41933 1.742 1.74199C1.41935 2.06465 1.41934 2.58778 1.742 2.91044L5.8316 7.00004L1.74199 11.0897C1.41933 11.4123 1.41934 11.9354 1.74199 12.2581C2.06465 12.5808 2.58779 12.5808 2.91045 12.2581L7.00006 8.16849L11.0896 12.2581Z" fill="#FB4F74" stroke="#FB4F74" stroke-width="1.10163" stroke-linecap="round" stroke-linejoin="round"/>
</svg>
