<svg width="48" height="48" viewBox="0 0 48 48" fill="none" xmlns="http://www.w3.org/2000/svg">
<path d="M24 10C33.3888 10 41 17.6112 41 27C41 36.3888 33.3888 44 24 44C14.6112 44 7 36.3888 7 27C7 17.6112 14.6112 10 24 10ZM24 16.5C23.1716 16.5 22.5 17.1716 22.5 18V25.4043C21.604 25.9232 21 26.8901 21 28C21 29.6569 22.3431 31 24 31C25.6569 31 27 29.6569 27 28C27 26.8901 26.396 25.9232 25.5 25.4043V18C25.5 17.1716 24.8284 16.5 24 16.5ZM24 4.5C26.2194 4.5 28.3694 4.80811 30.4082 5.38477C31.2053 5.61023 31.6688 6.43918 31.4434 7.23633C31.232 7.98374 30.49 8.43775 29.7412 8.30566L29.5918 8.27148L28.9209 8.09375C27.3459 7.7058 25.6979 7.5 24 7.5C22.0593 7.5 20.184 7.76922 18.4082 8.27148C17.6111 8.49693 16.7821 8.03347 16.5566 7.23633C16.3312 6.43918 16.7947 5.61023 17.5918 5.38477C19.6306 4.80811 21.7806 4.5 24 4.5Z" fill="white"/>
</svg>
