<svg width="11" height="12" viewBox="0 0 11 12" fill="none" xmlns="http://www.w3.org/2000/svg">
<path d="M6.3125 7.4375H0.304688V5.95312H6.28125C6.80208 5.94792 7.22917 5.86198 7.5625 5.69531C7.89583 5.52344 8.14323 5.28646 8.30469 4.98438C8.47135 4.67708 8.55469 4.32292 8.55469 3.92188C8.55469 3.53125 8.47396 3.18229 8.3125 2.875C8.15104 2.5625 7.90365 2.3151 7.57031 2.13281C7.23698 1.95052 6.81771 1.85938 6.3125 1.85938H3.83594V12H2.08594V0.359375H6.3125C7.19271 0.359375 7.92708 0.520833 8.51562 0.84375C9.10938 1.16146 9.55469 1.58854 9.85156 2.125C10.1536 2.65625 10.3047 3.2526 10.3047 3.91406C10.3047 4.58594 10.1536 5.1875 9.85156 5.71875C9.54948 6.25 9.10156 6.66927 8.50781 6.97656C7.91927 7.28385 7.1875 7.4375 6.3125 7.4375ZM6.39062 8.42188V9.90625H0.304688V8.42188H6.39062Z" fill="#71717B"/>
</svg>
