<svg width="54" height="54" viewBox="0 0 54 54" fill="none" xmlns="http://www.w3.org/2000/svg">
<path fill-rule="evenodd" clip-rule="evenodd" d="M54 31C54 43.7025 43.7025 54 31 54C18.2975 54 8 43.7025 8 31C8 28.1824 8.50666 25.4831 9.43385 22.9882C9.62167 22.9963 9.81053 23.0004 10.0003 23.0004C17.18 23.0004 23.0003 17.1801 23.0003 10.0004C23.0003 9.81055 22.9963 9.62169 22.9882 9.43386C25.483 8.50666 28.1824 8 31 8C43.7025 8 54 18.2975 54 31Z" fill="#30AE9B"/>
<path fill-rule="evenodd" clip-rule="evenodd" d="M14.6691 31.4756L20.6336 18.8739C20.6532 18.8315 20.6845 18.7956 20.7238 18.7707C20.7631 18.7457 20.8088 18.7328 20.8553 18.7334H41.1468C41.1931 18.7332 41.2384 18.7465 41.2774 18.7716C41.3163 18.7967 41.3473 18.8326 41.3665 18.8749L47.3311 31.4765C47.3538 31.5234 47.361 31.5764 47.3516 31.6276C47.3423 31.6789 47.3169 31.7258 47.2791 31.7615L31.1702 47.2868C31.1244 47.3309 31.0635 47.3556 31.0001 47.3556C30.9367 47.3556 30.8757 47.3309 30.83 47.2868L14.7211 31.7606C14.6833 31.7249 14.6579 31.6779 14.6485 31.6267C14.6392 31.5754 14.6464 31.5224 14.6691 31.4756ZM33.0697 28.9649C37.698 29.1802 41.1757 30.1021 41.1757 31.208C41.1757 32.3141 37.6946 33.2369 33.0687 33.4511V41.49H28.9458V33.454C24.3093 33.2388 20.8225 32.316 20.8225 31.209C20.8225 30.102 24.3093 29.1782 28.9458 28.964V26.4572H23.2415V22.6331H38.775V26.4572H33.0697V28.9649ZM33.0697 32.7697C32.954 32.7784 32.3565 32.8143 31.0236 32.8143C29.9635 32.8143 29.2109 32.7823 28.9468 32.7697C24.8499 32.5884 21.792 31.8711 21.792 31.0122C21.792 30.1534 24.8499 29.437 28.9468 29.2528V32.0552C29.2147 32.0746 29.9818 32.1202 31.042 32.1202C32.3141 32.1202 32.9511 32.0669 33.0658 32.0562V29.2548C37.154 29.438 40.2052 30.1553 40.2052 31.0122C40.2052 31.8691 37.155 32.5865 33.0658 32.7687L33.0697 32.7697Z" fill="#E5E5F3"/>
<circle cx="10" cy="10" r="10" fill="#E5E5F3"/>
<path d="M9.46985 14.5308C9.76275 14.8237 10.2376 14.8237 10.5305 14.5308L13.5305 11.5308C13.8234 11.2379 13.8234 10.763 13.5305 10.4701C13.2376 10.1772 12.7627 10.1772 12.4699 10.4701L10.7502 12.1898V6.00043C10.7502 5.58621 10.4144 5.25043 10.0002 5.25043C9.58597 5.25043 9.25018 5.58621 9.25018 6.00043V12.1898L7.53051 10.4701C7.23762 10.1772 6.76275 10.1772 6.46985 10.4701C6.17696 10.763 6.17696 11.2379 6.46985 11.5308L9.46985 14.5308Z" fill="#19191C"/>
</svg>
