<svg width="48" height="48" viewBox="0 0 48 48" fill="none" xmlns="http://www.w3.org/2000/svg">
<path d="M44 24C44 35.0457 35.0457 44 24 44M44 24C44 12.9543 35.0457 4 24 4M44 24C44 20.6863 35.0457 18 24 18C12.9543 18 4 20.6863 4 24M44 24C44 27.3137 35.0457 30 24 30C12.9543 30 4 27.3137 4 24M24 44C12.9543 44 4 35.0457 4 24M24 44C28.4183 44 32 35.0457 32 24C32 12.9543 28.4183 4 24 4M24 44C19.5817 44 16 35.0457 16 24C16 12.9543 19.5817 4 24 4M4 24C4 12.9543 12.9543 4 24 4" stroke="white" stroke-width="3"/>
</svg>
