<svg width="48" height="48" viewBox="0 0 48 48" fill="none" xmlns="http://www.w3.org/2000/svg">
<path fill-rule="evenodd" clip-rule="evenodd" d="M24.0007 44.0008C35.0463 44.0008 44.0007 35.0465 44.0007 24.0008C44.0007 12.9551 35.0463 4.00076 24.0007 4.00076C12.955 4.00076 4.00065 12.9551 4.00065 24.0008C4.00065 35.0465 12.955 44.0008 24.0007 44.0008ZM31.0612 27.0614L25.0612 33.0614C24.4754 33.6472 23.5257 33.6472 22.9399 33.0614L16.9399 27.0614C16.3541 26.4756 16.3541 25.5259 16.9399 24.9401C17.5257 24.3543 18.4754 24.3543 19.0612 24.9401L22.5005 28.3794V16.0008C22.5005 15.1723 23.1721 14.5008 24.0005 14.5008C24.829 14.5008 25.5005 15.1723 25.5005 16.0008V28.3794L28.9399 24.9401C29.5257 24.3543 30.4754 24.3543 31.0612 24.9401C31.647 25.5259 31.647 26.4756 31.0612 27.0614Z" fill="white"/>
</svg>
