<svg width="48" height="48" viewBox="0 0 48 48" fill="none" xmlns="http://www.w3.org/2000/svg">
<path fill-rule="evenodd" clip-rule="evenodd" d="M24.0006 4.00037C35.0463 4.00037 44.0006 12.9547 44.0006 24.0004C44.0006 35.0461 35.0463 44.0004 24.0006 44.0004C12.9549 44.0004 4.0006 35.0461 4.0006 24.0004C4.0006 12.9547 12.9549 4.00037 24.0006 4.00037ZM31.0611 20.9397L25.0611 14.9397C24.4753 14.3539 23.5256 14.3539 22.9398 14.9397L16.9398 20.9397C16.354 21.5255 16.354 22.4752 16.9398 23.061C17.5256 23.6468 18.4753 23.6468 19.0611 23.061L22.5005 19.6217V32.0004C22.5005 32.8288 23.172 33.5004 24.0005 33.5004C24.8289 33.5004 25.5005 32.8288 25.5005 32.0004V19.6217L28.9398 23.061C29.5256 23.6468 30.4753 23.6468 31.0611 23.061C31.6469 22.4752 31.6469 21.5255 31.0611 20.9397Z" fill="white"/>
</svg>
