<svg width="48" height="48" viewBox="0 0 48 48" fill="none" xmlns="http://www.w3.org/2000/svg">
<path d="M24.0621 44C18.9433 44 14.2743 42.0704 10.7406 38.8977C10.2891 38.4923 10.2911 37.7944 10.7198 37.365L16.2245 31.8509C16.6543 31.4204 17.3484 31.4259 17.8226 31.8067C19.5318 33.1791 21.7013 34 24.0621 34C26.4243 34 28.595 33.1782 30.3045 31.8044C30.7775 31.4243 30.7741 30.7234 30.3454 30.2939L25.9361 25.8771C25.244 25.1839 25.735 24 26.7145 24H42.9282C43.5357 24 44.0313 24.4933 43.9985 25.0999C43.4285 35.6341 34.7207 44 24.0621 44Z" fill="white"/>
<path d="M23.9379 4C29.0568 4 33.7258 5.92961 37.2594 9.10228C37.7109 9.50766 37.709 10.2056 37.2803 10.635L31.7755 16.1491C31.3458 16.5796 30.6517 16.5741 30.1774 16.1933C28.4683 14.8209 26.2988 14 23.9379 14C21.5757 14 19.4051 14.8218 17.6955 16.1956C17.2226 16.5757 17.226 17.2766 17.6547 17.7061L22.064 22.1229C22.756 22.8161 22.2651 24 21.2855 24H5.07186C4.46435 24 3.96872 23.5067 4.00154 22.9001C4.57154 12.3659 13.2794 4.00001 23.9379 4Z" fill="white"/>
</svg>
